<?xml version="1.0" standalone="no"?>
<!DOCTYPE svg PUBLIC "-//W3C//DTD SVG 20010904//EN"
 "http://www.w3.org/TR/2001/REC-SVG-20010904/DTD/svg10.dtd">
<svg version="1.0" xmlns="http://www.w3.org/2000/svg"
 width="704.000000pt" height="43.000000pt" viewBox="0 0 704.000000 43.000000"
 preserveAspectRatio="xMidYMid meet">

<g transform="translate(0.000000,43.000000) scale(0.100000,-0.100000)"
fill="#000000" stroke="none">
<path d="M4 417 c-2 -7 -3 -102 -2 -212 l3 -200 127 -3 c83 -2 128 1 128 8 0
5 -9 10 -20 10 -19 0 -20 7 -20 195 0 188 1 195 20 195 11 0 20 5 20 10 0 16
-249 13 -256 -3z m196 -202 l0 -195 -90 0 -90 0 0 195 0 195 90 0 90 0 0 -195z"/>
<path d="M325 420 c-4 -6 7 -10 24 -10 17 0 31 5 31 10 0 6 -11 10 -24 10 -14
0 -28 -4 -31 -10z"/>
<path d="M445 420 c-4 -6 8 -10 30 -10 22 0 34 4 30 10 -3 6 -17 10 -30 10
-13 0 -27 -4 -30 -10z"/>
<path d="M570 420 c0 -5 14 -10 31 -10 17 0 28 4 24 10 -3 6 -17 10 -31 10
-13 0 -24 -4 -24 -10z"/>
<path d="M690 420 c0 -5 14 -10 31 -10 17 0 28 4 24 10 -3 6 -17 10 -31 10
-13 0 -24 -4 -24 -10z"/>
<path d="M815 420 c-4 -6 7 -10 25 -10 18 0 29 4 25 10 -3 6 -15 10 -25 10
-10 0 -22 -4 -25 -10z"/>
<path d="M935 420 c-4 -6 7 -10 25 -10 18 0 29 4 25 10 -3 6 -15 10 -25 10
-10 0 -22 -4 -25 -10z"/>
<path d="M1055 420 c-4 -6 7 -10 25 -10 18 0 29 4 25 10 -3 6 -15 10 -25 10
-10 0 -22 -4 -25 -10z"/>
<path d="M1175 420 c-4 -6 7 -10 25 -10 18 0 29 4 25 10 -3 6 -15 10 -25 10
-10 0 -22 -4 -25 -10z"/>
<path d="M1295 420 c-4 -6 7 -10 25 -10 18 0 29 4 25 10 -3 6 -15 10 -25 10
-10 0 -22 -4 -25 -10z"/>
<path d="M1415 420 c-4 -6 7 -10 25 -10 18 0 29 4 25 10 -3 6 -15 10 -25 10
-10 0 -22 -4 -25 -10z"/>
<path d="M1535 420 c-4 -6 8 -10 30 -10 22 0 34 4 30 10 -3 6 -17 10 -30 10
-13 0 -27 -4 -30 -10z"/>
<path d="M1655 420 c-4 -6 8 -10 30 -10 22 0 34 4 30 10 -3 6 -17 10 -30 10
-13 0 -27 -4 -30 -10z"/>
<path d="M1775 420 c-4 -6 8 -10 30 -10 22 0 34 4 30 10 -3 6 -17 10 -30 10
-13 0 -27 -4 -30 -10z"/>
<path d="M1905 420 c-4 -6 7 -10 25 -10 18 0 29 4 25 10 -3 6 -15 10 -25 10
-10 0 -22 -4 -25 -10z"/>
<path d="M2025 420 c-4 -6 7 -10 25 -10 18 0 29 4 25 10 -3 6 -15 10 -25 10
-10 0 -22 -4 -25 -10z"/>
<path d="M2145 420 c-4 -6 7 -10 25 -10 18 0 29 4 25 10 -3 6 -15 10 -25 10
-10 0 -22 -4 -25 -10z"/>
<path d="M2265 420 c-4 -6 7 -10 25 -10 18 0 29 4 25 10 -3 6 -15 10 -25 10
-10 0 -22 -4 -25 -10z"/>
<path d="M2385 420 c-4 -6 7 -10 25 -10 18 0 29 4 25 10 -3 6 -15 10 -25 10
-10 0 -22 -4 -25 -10z"/>
<path d="M2505 420 c-4 -6 7 -10 25 -10 18 0 29 4 25 10 -3 6 -15 10 -25 10
-10 0 -22 -4 -25 -10z"/>
<path d="M2625 420 c-4 -6 8 -10 30 -10 22 0 34 4 30 10 -3 6 -17 10 -30 10
-13 0 -27 -4 -30 -10z"/>
<path d="M2745 420 c-4 -6 7 -10 24 -10 17 0 31 5 31 10 0 6 -11 10 -24 10
-14 0 -28 -4 -31 -10z"/>
<path d="M2865 420 c-4 -6 8 -10 30 -10 22 0 34 4 30 10 -3 6 -17 10 -30 10
-13 0 -27 -4 -30 -10z"/>
<path d="M2995 420 c-4 -6 7 -10 25 -10 18 0 29 4 25 10 -3 6 -15 10 -25 10
-10 0 -22 -4 -25 -10z"/>
<path d="M3110 420 c0 -5 14 -10 31 -10 17 0 28 4 24 10 -3 6 -17 10 -31 10
-13 0 -24 -4 -24 -10z"/>
<path d="M3235 420 c-4 -6 7 -10 25 -10 18 0 29 4 25 10 -3 6 -15 10 -25 10
-10 0 -22 -4 -25 -10z"/>
<path d="M3355 420 c-4 -6 7 -10 25 -10 18 0 29 4 25 10 -3 6 -15 10 -25 10
-10 0 -22 -4 -25 -10z"/>
<path d="M3475 420 c-3 -5 3 -10 14 -10 19 0 21 -6 21 -65 l0 -65 -847 -2
-848 -3 -3 -53 c-2 -31 2 -60 9 -68 10 -12 138 -14 850 -14 l839 0 0 -60 c0
-55 -2 -60 -22 -60 -15 0 -19 -3 -12 -10 7 -7 608 -9 1785 -8 l1774 3 0 210 0
210 -1777 3 c-1180 1 -1779 -1 -1783 -8z m235 -75 l0 -65 -90 0 -90 0 0 65 0
65 90 0 90 0 0 -65z m3310 -130 l0 -195 -1645 0 -1645 0 0 60 0 60 703 2 702
3 3 68 3 67 -706 0 -705 0 0 65 0 65 1645 0 1645 0 0 -195z m-3310 -135 l0
-60 -90 0 -90 0 0 60 0 60 90 0 90 0 0 -60z"/>
<path d="M1117 262 l-47 -48 50 -49 c54 -54 70 -52 18 2 l-32 33 311 0 c197 0
314 4 318 10 4 7 -102 10 -311 10 l-318 0 33 34 c18 19 32 39 30 45 -3 7 -26
-10 -52 -37z"/>
<path d="M325 10 c3 -5 17 -10 31 -10 13 0 24 5 24 10 0 6 -14 10 -31 10 -17
0 -28 -4 -24 -10z"/>
<path d="M445 10 c8 -13 52 -13 60 0 4 6 -8 10 -30 10 -22 0 -34 -4 -30 -10z"/>
<path d="M570 10 c0 -13 47 -13 55 0 4 6 -7 10 -24 10 -17 0 -31 -4 -31 -10z"/>
<path d="M690 10 c0 -5 11 -10 24 -10 14 0 28 4 31 10 4 6 -7 10 -24 10 -17 0
-31 -4 -31 -10z"/>
<path d="M810 10 c0 -5 11 -10 24 -10 14 0 28 4 31 10 4 6 -7 10 -24 10 -17 0
-31 -4 -31 -10z"/>
<path d="M930 10 c0 -5 11 -10 24 -10 14 0 28 4 31 10 4 6 -7 10 -24 10 -17 0
-31 -4 -31 -10z"/>
<path d="M1055 10 c8 -13 42 -13 50 0 4 6 -7 10 -25 10 -18 0 -29 -4 -25 -10z"/>
<path d="M1175 10 c8 -13 42 -13 50 0 4 6 -7 10 -25 10 -18 0 -29 -4 -25 -10z"/>
<path d="M1295 10 c3 -5 17 -10 31 -10 13 0 24 5 24 10 0 6 -14 10 -31 10 -17
0 -28 -4 -24 -10z"/>
<path d="M1415 10 c3 -5 17 -10 31 -10 13 0 24 5 24 10 0 6 -14 10 -31 10 -17
0 -28 -4 -24 -10z"/>
<path d="M1535 10 c8 -13 52 -13 60 0 4 6 -8 10 -30 10 -22 0 -34 -4 -30 -10z"/>
<path d="M1655 10 c8 -13 52 -13 60 0 4 6 -8 10 -30 10 -22 0 -34 -4 -30 -10z"/>
<path d="M1775 10 c8 -13 52 -13 60 0 4 6 -8 10 -30 10 -22 0 -34 -4 -30 -10z"/>
<path d="M1900 10 c0 -13 47 -13 55 0 4 6 -7 10 -24 10 -17 0 -31 -4 -31 -10z"/>
<path d="M2020 10 c0 -13 47 -13 55 0 4 6 -7 10 -24 10 -17 0 -31 -4 -31 -10z"/>
<path d="M2145 10 c8 -13 42 -13 50 0 4 6 -7 10 -25 10 -18 0 -29 -4 -25 -10z"/>
<path d="M2265 10 c3 -5 17 -10 31 -10 13 0 24 5 24 10 0 6 -14 10 -31 10 -17
0 -28 -4 -24 -10z"/>
<path d="M2385 10 c3 -5 17 -10 31 -10 13 0 24 5 24 10 0 6 -14 10 -31 10 -17
0 -28 -4 -24 -10z"/>
<path d="M2505 10 c3 -5 17 -10 31 -10 13 0 24 5 24 10 0 6 -14 10 -31 10 -17
0 -28 -4 -24 -10z"/>
<path d="M2625 10 c3 -5 17 -10 31 -10 13 0 24 5 24 10 0 6 -14 10 -31 10 -17
0 -28 -4 -24 -10z"/>
<path d="M2745 10 c3 -5 17 -10 31 -10 13 0 24 5 24 10 0 6 -14 10 -31 10 -17
0 -28 -4 -24 -10z"/>
<path d="M2865 10 c8 -13 52 -13 60 0 4 6 -8 10 -30 10 -22 0 -34 -4 -30 -10z"/>
<path d="M2990 10 c0 -13 47 -13 55 0 4 6 -7 10 -24 10 -17 0 -31 -4 -31 -10z"/>
<path d="M3110 10 c0 -13 47 -13 55 0 4 6 -7 10 -24 10 -17 0 -31 -4 -31 -10z"/>
<path d="M3235 10 c8 -13 42 -13 50 0 4 6 -7 10 -25 10 -18 0 -29 -4 -25 -10z"/>
<path d="M3355 10 c3 -5 17 -10 31 -10 13 0 24 5 24 10 0 6 -14 10 -31 10 -17
0 -28 -4 -24 -10z"/>
</g>
</svg>
